# xmcd
#
# Track frame offsets:
#	150
#	11486
#	22891
#	35563
#	45993
#	55855
#	67352
#	78911
#	90700
#	102766
#	113495
#	124985
#	135676
#	147550
#	158663
#	170928
#
# Disc length: 2399 seconds
#
# Revision: 0
# Processed by: cddbd v1.4PL0 Copyright (c) Steve Scherf et al.
# Submitted via: MusicWizard 6.0.2
#
DISCID=d6095d10
DTITLE=Kitty Wells - Country Gold
DYEAR=1995
DGENRE=Country
TTITLE0=Heartbreak USA
TTITLE1=It Wasn't God Who Made Honky Tonk Angels
TTITLE2=Makin' Believe
TTITLE3=Searching (For Someone Like You)
TTITLE4=I Can't Stop Loving You
TTITLE5=Password
TTITLE6=You Don't Hear
TTITLE7=Amigo's Guitar
TTITLE8=Playing For That Backstreet Affair
TTITLE9=Mommy For A Day
TTITLE10=Left To Right
TTITLE11=Unloved, Unwanted
TTITLE12=We Missed You
TTITLE13=Will Your Lawyer Talk To God
TTITLE14=This White Circle  On My Finger
TTITLE15=I'll Resposses My Heart
EXTD=
EXTT0=
EXTT1=
EXTT2=
EXTT3=
EXTT4=
EXTT5=
EXTT6=
EXTT7=
EXTT8=
EXTT9=
EXTT10=
EXTT11=
EXTT12=
EXTT13=
EXTT14=
EXTT15=
PLAYORDER=
